<?xml version="1.0" encoding="UTF-8"?>
<!-- This file is generated by npm run build:icons -->
<svg xmlns="http://www.w3.org/2000/svg" xmlns:xlink="http://www.w3.org/1999/xlink" width="0" height="0">
<defs>
<symbol viewBox="2197.585 4377.89 24.52 45.781" id="brand/facebook">
    <path       d="m2220.441 4403.64 1.29-8.281h-7.949v-5.383c0-2.265 1.11-4.477 4.659-4.477h3.665v-7.052a44.014 44.014 0 0 0-6.453-.557c-6.543 0-10.815 3.973-10.815 11.154v6.315h-7.253v8.281h7.253v20.031h8.944v-20.031h6.659Z"
      data-testid="svg-path"
    ></path>
  </symbol>
<symbol viewBox="2074.268 4375.781 50.028 50" id="brand/instagram">
    <path       d="M2090.946 4400.781a8.336 8.336 0 0 1 8.337-8.334c4.605 0 8.339 3.732 8.339 8.334 0 4.602-3.734 8.334-8.339 8.334a8.336 8.336 0 0 1-8.337-8.334Zm-4.508 0c0 7.09 5.75 12.837 12.845 12.837 7.094 0 12.845-5.747 12.845-12.837s-5.751-12.837-12.845-12.837c-7.095 0-12.845 5.747-12.845 12.837Zm23.196-13.346a3.002 3.002 0 1 0 5.776-1.146 3.006 3.006 0 0 0-2.773-1.853h-.001a3.004 3.004 0 0 0-3.002 2.999Zm-20.458 33.695c-2.438-.111-3.764-.517-4.645-.86-1.168-.454-2.001-.995-2.877-1.87-.876-.874-1.419-1.706-1.871-2.873-.344-.88-.75-2.206-.861-4.643-.121-2.635-.145-3.427-.145-10.103s.026-7.466.145-10.103c.111-2.437.521-3.76.861-4.643.454-1.167.996-2 1.871-2.875.875-.876 1.707-1.418 2.877-1.87.881-.343 2.207-.749 4.645-.86 2.637-.121 3.429-.146 10.107-.146 6.677 0 7.47.027 10.109.146 2.439.111 3.762.52 4.645.86 1.168.452 2.001.995 2.877 1.87.877.874 1.417 1.708 1.871 2.875.344.88.75 2.206.861 4.643.121 2.637.146 3.427.146 10.103s-.025 7.466-.146 10.103c-.111 2.437-.519 3.762-.861 4.643-.454 1.167-.996 2-1.871 2.873-.875.874-1.709 1.416-2.877 1.87-.88.343-2.206.749-4.645.86-2.637.121-3.429.146-10.109.146-6.681 0-7.47-.025-10.107-.146Zm-.207-45.198c-2.663.121-4.482.543-6.071 1.161-1.646.639-3.039 1.495-4.432 2.884-1.392 1.389-2.246 2.784-2.885 4.429-.618 1.589-1.041 3.406-1.162 6.068-.123 2.665-.151 3.518-.151 10.307 0 6.789.028 7.641.151 10.307.121 2.661.544 4.479 1.162 6.068.639 1.644 1.493 3.04 2.885 4.429 1.392 1.388 2.786 2.243 4.432 2.883 1.592.618 3.408 1.04 6.071 1.161 2.669.122 3.52.152 10.314.152 6.793 0 7.646-.028 10.313-.152 2.663-.121 4.482-.543 6.072-1.161 1.644-.64 3.039-1.494 4.431-2.883 1.392-1.39 2.245-2.785 2.885-4.429.619-1.589 1.043-3.407 1.162-6.068.121-2.668.15-3.518.15-10.307 0-6.789-.029-7.642-.15-10.307-.121-2.662-.543-4.48-1.162-6.068-.64-1.644-1.495-3.038-2.885-4.429-1.39-1.391-2.787-2.245-4.429-2.884-1.592-.618-3.411-1.042-6.072-1.161-2.667-.121-3.52-.151-10.313-.151-6.794 0-7.647.028-10.316.151Z"
      data-testid="svg-path"
    ></path>
  </symbol>
<symbol viewBox="1971.383 4378.014 34.793 45.781" id="brand/pinterest">
    <path       d="M1986.542 4378.167c-7.432.849-14.837 7.005-15.143 15.797-.192 5.368 1.297 9.395 6.288 10.526 2.165-3.911-.699-4.774-1.144-7.603-1.83-11.595 13.064-19.502 20.858-11.407 5.392 5.605 1.842 22.849-6.855 21.057-8.331-1.712 4.078-15.439-2.572-18.134-5.406-2.19-8.279 6.7-5.716 11.117-1.502 7.594-4.737 14.75-3.427 24.275 4.248-3.156 5.68-9.199 6.855-15.501 2.135 1.327 3.275 2.709 5.999 2.923 10.047.796 15.658-10.267 14.287-20.472-1.218-9.047-10.038-13.65-19.43-12.578Z"
      data-testid="svg-path"
    ></path>
  </symbol>
<symbol fill="none" viewBox="0 0 256 256" id="phosphor/arrow-circle-right">
    <path         d="M128,24A104,104,0,1,0,232,128,104.11,104.11,0,0,0,128,24Zm0,192a88,88,0,1,1,88-88A88.1,88.1,0,0,1,128,216Zm45.66-93.66a8,8,0,0,1,0,11.32l-32,32a8,8,0,0,1-11.32-11.32L148.69,136H88a8,8,0,0,1,0-16h60.69l-18.35-18.34a8,8,0,0,1,11.32-11.32Z">
    </path>
</symbol>
<symbol viewBox="0 0 15 15" fill="none" id="radix/arrow-right">
  <path     fill-rule="evenodd"
    clip-rule="evenodd"
    d="M8.14645 3.14645C8.34171 2.95118 8.65829 2.95118 8.85355 3.14645L12.8536 7.14645C13.0488 7.34171 13.0488 7.65829 12.8536 7.85355L8.85355 11.8536C8.65829 12.0488 8.34171 12.0488 8.14645 11.8536C7.95118 11.6583 7.95118 11.3417 8.14645 11.1464L11.2929 8H2.5C2.22386 8 2 7.77614 2 7.5C2 7.22386 2.22386 7 2.5 7H11.2929L8.14645 3.85355C7.95118 3.65829 7.95118 3.34171 8.14645 3.14645Z"
    fill="currentColor"
  ></path>
</symbol>
<symbol viewBox="0 0 15 15" id="radix/calendar"><path fill="currentColor" fill-rule="evenodd" d="M4.5 1a.5.5 0 0 1 .5.5V2h5v-.5a.5.5 0 0 1 1 0V2h1.5A1.5 1.5 0 0 1 14 3.5v9a1.5 1.5 0 0 1-1.5 1.5h-10A1.5 1.5 0 0 1 1 12.5v-9A1.5 1.5 0 0 1 2.5 2H4v-.5a.5.5 0 0 1 .5-.5M10 3v.5a.5.5 0 0 0 1 0V3h1.5a.5.5 0 0 1 .5.5V5H2V3.5a.5.5 0 0 1 .5-.5H4v.5a.5.5 0 0 0 1 0V3zM2 6v6.5a.5.5 0 0 0 .5.5h10a.5.5 0 0 0 .5-.5V6zm5 1.5a.5.5 0 1 1 1 0a.5.5 0 0 1-1 0M9.5 7a.5.5 0 1 0 0 1a.5.5 0 0 0 0-1m1.5.5a.5.5 0 1 1 1 0a.5.5 0 0 1-1 0m.5 1.5a.5.5 0 1 0 0 1a.5.5 0 0 0 0-1M9 9.5a.5.5 0 1 1 1 0a.5.5 0 0 1-1 0M7.5 9a.5.5 0 1 0 0 1a.5.5 0 0 0 0-1M5 9.5a.5.5 0 1 1 1 0a.5.5 0 0 1-1 0M3.5 9a.5.5 0 1 0 0 1a.5.5 0 0 0 0-1M3 11.5a.5.5 0 1 1 1 0a.5.5 0 0 1-1 0m2.5-.5a.5.5 0 1 0 0 1a.5.5 0 0 0 0-1m1.5.5a.5.5 0 1 1 1 0a.5.5 0 0 1-1 0m2.5-.5a.5.5 0 1 0 0 1a.5.5 0 0 0 0-1" clip-rule="evenodd"></path></symbol>
<symbol viewBox="0 0 15 15" id="radix/check-circled"><path fill="currentColor" d="M7.5.877a6.623 6.623 0 1 1 0 13.246A6.623 6.623 0 0 1 7.5.877m0 .95a5.674 5.674 0 1 0 0 11.343a5.674 5.674 0 0 0-.002-11.345m1.84 3.135a.5.5 0 0 1 .82.576l-3.168 4.5a.5.5 0 0 1-.765.063L4.644 8.487L5 8.137l.357-.35L6.52 8.971zM4.65 7.78a.5.5 0 0 1 .707.007l-.713.7a.5.5 0 0 1 .006-.707"></path></symbol>
<symbol viewBox="0 0 15 15" id="radix/envelope-closed"><path fill="currentColor" d="M14 2a1 1 0 0 1 1 1v9a1 1 0 0 1-1 1H1a1 1 0 0 1-1-1V3a1 1 0 0 1 1-1zM7.741 8.88a.45.45 0 0 1-.426.03l-.056-.03L1 4.907V12h13V4.907zM1 3.925q.08 0 .16.03l.081.04L7.5 7.967l6.259-3.972a.45.45 0 0 1 .241-.07V3H1z"></path></symbol>
<symbol viewBox="0 0 15 15" id="radix/github-logo"><path fill="currentColor" d="M7.499.25a7.25 7.25 0 0 1 2.297 14.129c-.367.07-.498-.155-.498-.349c0-.237.009-1.02.009-1.989c0-.676-.233-1.119-.493-1.343c1.615-.18 3.311-.792 3.311-3.577c0-.792-.28-1.438-.745-1.945c.074-.184.322-.92-.073-1.92c-.015-.004-.625-.182-1.992.744A7 7 0 0 0 7.5 3.756A7 7 0 0 0 5.686 4C4.3 3.062 3.69 3.257 3.69 3.257c-.394.998-.146 1.735-.07 1.919a2.8 2.8 0 0 0-.747 1.945c0 2.778 1.693 3.4 3.303 3.583c-.207.181-.394.5-.46.969c-.413.185-1.464.506-2.11-.602c0 0-.383-.695-1.11-.747c0 0-.709-.009-.05.44c.014.008.48.237.804 1.061c.005.016.437 1.407 2.442.972c.004.605.01 1.061.01 1.233c0 .193-.132.416-.495.35A7.25 7.25 0 0 1 7.499.25"></path></symbol>
<symbol viewBox="0 0 15 15" id="radix/globe"><path fill="currentColor" d="M7.5.9a6.6 6.6 0 1 1-.002 13.201A6.6 6.6 0 0 1 7.5.901m-2.216 9.805a7 7 0 0 0 1.575 2.458q.12.013.24.02v-2.338a17 17 0 0 1-1.815-.14m4.489-.006c-.611.083-1.242.131-1.873.145v2.34q.122-.008.242-.021A7 7 0 0 0 9.773 10.7m-7.415-.737a5.72 5.72 0 0 0 3.355 2.95a8.2 8.2 0 0 1-1.217-2.333a11 11 0 0 1-2.138-.617m10.283 0a11 11 0 0 1-2.072.605a8 8 0 0 1-1.253 2.335a5.7 5.7 0 0 0 3.325-2.94M4.71 7.9c.03.703.139 1.398.327 2.063c.661.104 1.358.165 2.063.182V7.9zm3.19 2.245a16 16 0 0 0 2.13-.192a8.8 8.8 0 0 0 .337-2.053H7.9zM1.816 7.9q.041.579.191 1.12c.628.345 1.407.612 2.27.8a10 10 0 0 1-.268-1.92zm9.252 0a9.5 9.5 0 0 1-.274 1.905c.735-.164 1.408-.386 1.975-.666l.224-.118q.15-.541.192-1.121zm-6.74-2.925c-.854.183-1.625.443-2.253.777q-.208.645-.258 1.347h2.192a9.8 9.8 0 0 1 .319-2.124M7.1 4.662a16 16 0 0 0-2.003.173a9 9 0 0 0-.388 2.264H7.1zm.8 2.437h2.467a8.7 8.7 0 0 0-.399-2.255A16 16 0 0 0 7.9 4.662zm2.84-2.11c.188.686.298 1.397.328 2.11h2.117a5.7 5.7 0 0 0-.26-1.348l-.156-.082c-.58-.287-1.272-.514-2.028-.68M5.714 2.087a5.72 5.72 0 0 0-3.231 2.707a11 11 0 0 1 2.086-.58a8 8 0 0 1 1.145-2.127m3.603.01c.5.642.892 1.362 1.178 2.128c.724.136 1.41.325 2.021.568a5.7 5.7 0 0 0-3.2-2.696M7.9 3.963a17 17 0 0 1 1.788.135a7 7 0 0 0-1.545-2.261a6 6 0 0 0-.243-.022zm-.8-2.148q-.122.009-.242.022A7 7 0 0 0 5.367 4.09c.567-.072 1.15-.115 1.732-.128z"></path></symbol>
<symbol viewBox="0 0 15 15" id="radix/hamburger-menu"><path fill="currentColor" fill-rule="evenodd" d="M1.5 3a.5.5 0 0 0 0 1h12a.5.5 0 0 0 0-1zM1 7.5a.5.5 0 0 1 .5-.5h12a.5.5 0 0 1 0 1h-12a.5.5 0 0 1-.5-.5m0 4a.5.5 0 0 1 .5-.5h12a.5.5 0 0 1 0 1h-12a.5.5 0 0 1-.5-.5" clip-rule="evenodd"></path></symbol>
<symbol viewBox="0 0 15 15" id="radix/linkedin-logo"><path fill="currentColor" d="M13 1a1 1 0 0 1 1 1v11a1 1 0 0 1-1 1H2a1 1 0 0 1-1-1V2a1 1 0 0 1 1-1zM9.675 5.85a2.2 2.2 0 0 0-1.096.231c-.257.129-.527.424-.734.938h-.053V6H6v6.005h1.906V8.812c-.027-.328.077-.75.291-1.002s.521-.312.753-.342h.072c.607 0 1.056.375 1.056 1.321v3.216h1.906L12 8.357c0-1.804-1.166-2.506-2.325-2.506M3.05 12h1.9V6h-1.9zM4 2.93a1.075 1.075 0 1 0 0 2.15a1.075 1.075 0 0 0 0-2.15"></path></symbol>
<symbol viewBox="0 0 256 256" id="radix/phone"><path fill="currentColor" d="m222.37 158.46l-47.11-21.11l-.13-.06a16 16 0 0 0-15.17 1.4a8 8 0 0 0-.75.56L134.87 160c-15.42-7.49-31.34-23.29-38.83-38.51l20.78-24.71c.2-.25.39-.5.57-.77a16 16 0 0 0 1.32-15.06v-.12L97.54 33.64a16 16 0 0 0-16.62-9.52A56.26 56.26 0 0 0 32 80c0 79.4 64.6 144 144 144a56.26 56.26 0 0 0 55.88-48.92a16 16 0 0 0-9.51-16.62M176 208A128.14 128.14 0 0 1 48 80a40.2 40.2 0 0 1 34.87-40a.6.6 0 0 0 0 .12l21 47l-20.67 24.74a6 6 0 0 0-.57.77a16 16 0 0 0-1 15.7c9.06 18.53 27.73 37.06 46.46 46.11a16 16 0 0 0 15.75-1.14a8 8 0 0 0 .74-.56L168.89 152l47 21.05h.11A40.21 40.21 0 0 1 176 208"></path></symbol>
<symbol viewBox="0 0 15 15" id="radix/plus"><path fill="currentColor" d="M7.5 2.25a.5.5 0 0 1 .5.5V7h4.25a.5.5 0 0 1 0 1H8v4.25a.5.5 0 0 1-1 0V8H2.75a.5.5 0 0 1 0-1H7V2.75a.5.5 0 0 1 .5-.5"></path></symbol>
<symbol viewBox="0 0 15 15" id="radix/trash"><path fill="currentColor" d="M11.5 3a.5.5 0 0 1 0 1H11v8l-.005.102a1 1 0 0 1-.893.893L10 13H5l-.103-.005a1 1 0 0 1-.892-.893L4 12V4h-.5a.5.5 0 0 1 0-1zM5 12h5V4H5zM9.5 1a.5.5 0 0 1 0 1h-4a.5.5 0 0 1 0-1z"></path></symbol>
</defs>
</svg>
